Coordinates
version=1
nRows=8
nColumns=46
inDegrees=yes

Units are S.I. units (second, meters, Newtons, ...)
Angles are in degrees.

endheader
time	pelvis_tilt	pelvis_list	pelvis_rotation	pelvis_tx	pelvis_ty	pelvis_tz	bb_angle	bb_tx	bb_ty	bb_tz	hip_flexion_r	hip_adduction_r	hip_rotation_r	knee_angle_r	knee_angle_r_beta	ankle_angle_r	subtalar_angle_r	mtp_angle_r	crank_angle_r	hip_flexion_l	hip_adduction_l	hip_rotation_l	knee_angle_l	knee_angle_l_beta	ankle_angle_l	subtalar_angle_l	mtp_angle_l	crank_angle_l	lumbar_extension	lumbar_bending	lumbar_rotation	arm_flex_r	arm_add_r	arm_rot_r	elbow_flex_r	pro_sup_r	wrist_flex_r	wrist_dev_r	arm_flex_l	arm_add_l	arm_rot_l	elbow_flex_l	pro_sup_l	wrist_flex_l	wrist_dev_l
      2.50500000	     -9.64760252	     -3.49043919	     -5.24560396	      0.10439367	      1.16434777	     -0.23938030	      0.00000000	      0.50000000	      0.00000000	      0.25000000	     68.14380710	     -2.32910017	     -4.79355410	     71.86815025	      1.25433585	     26.58257652	     -1.13669151	      0.00000000	      0.00000000	     58.71518524	    -21.01840874	     -8.14266311	     79.92879435	      1.39502063	    -28.72542101	     -4.89601615	      0.00000000	      0.00000000	    -61.50577841	      2.40860008	      3.59843839	     89.71995535	     -0.25331310	     25.39897556	     39.57717628	     19.30285870	      0.00000000	      0.00000000	     89.75956106	     -7.06260777	     28.66118498	     32.41812590	     18.02798176	      0.00000000	      0.00000000
      2.51000000	     -9.60635250	     -3.16814225	     -5.02907058	      0.10385657	      1.16289029	     -0.23853405	      0.00000000	      0.50000000	      0.00000000	      0.25000000	     67.38020752	     -2.54400268	     -4.70811572	     70.43755121	      1.22936719	     26.08277141	     -0.99179135	      0.00000000	      0.00000000	     59.59166271	    -21.06333183	     -8.07974872	     81.59537283	      1.42410791	    -28.45463251	     -4.88115264	      0.00000000	      0.00000000	    -61.44930852	      2.22605240	      3.21881910	     89.71434929	     -0.30311383	     25.35675073	     39.61769430	     19.31443022	      0.00000000	      0.00000000	     89.76372013	     -7.03931569	     28.67584365	     32.51512414	     18.05207972	      0.00000000	      0.00000000
      2.51500000	     -9.81618890	     -3.46503971	     -4.75109137	      0.10341518	      1.16092818	     -0.23784848	      0.00000000	      0.50000000	      0.00000000	      0.25000000	     66.65893404	     -2.47455356	     -5.25758412	     68.81855929	      1.20111045	     25.26921314	     -1.25396447	      0.00000000	      0.00000000	     61.09139299	    -21.53344173	     -7.30906897	     83.53259997	      1.45791890	    -27.47036199	     -4.27375326	      0.00000000	      0.00000000	    -61.21970867	      2.68103957	      3.39157115	     89.71180501	     -0.12574499	     25.33530490	     39.64717077	     19.35443435	      0.00000000	      0.00000000	     89.75287212	     -7.36108303	     28.65136953	     32.82503661	     18.14292149	      0.00000000	      0.00000000
      2.52000000	     -9.80719758	     -2.98856389	     -4.44607758	      0.10306728	      1.15984039	     -0.23706225	      0.00000000	      0.50000000	      0.00000000	      0.25000000	     65.84540049	     -2.85940773	     -5.10562209	     67.28314328	      1.17431238	     24.64083882	     -1.03991572	      0.00000000	      0.00000000	     61.90240491	    -21.44719732	     -7.43126280	     85.09944128	      1.48526544	    -26.98606680	     -4.34684549	      0.00000000	      0.00000000	    -61.12601871	      2.39197043	      2.82875690	     89.70201985	     -0.26678525	     25.26289048	     39.65720269	     19.36171313	      0.00000000	      0.00000000	     89.76089775	     -7.27108418	     28.69192444	     32.91243769	     18.16671061	      0.00000000	      0.00000000
      2.52500000	     -9.91197069	     -2.83117137	     -4.07349851	      0.10288014	      1.15851545	     -0.23638360	      0.00000000	      0.50000000	      0.00000000	      0.25000000	     65.03144360	     -3.10583063	     -5.25985570	     65.67982410	      1.14632918	     23.74996445	     -1.11194397	      0.00000000	      0.00000000	     63.00253120	    -21.52382130	     -7.17560271	     86.82311706	      1.51534926	    -25.81938930	     -4.14003096	      0.00000000	      0.00000000	    -60.96927883	      2.55207314	      2.59881320	     89.69603165	     -0.23868287	     25.21200199	     39.64583344	     19.38556923	      0.00000000	      0.00000000	     89.75485389	     -7.43219501	     28.69327826	     33.13932694	     18.22781087	      0.00000000	      0.00000000
      2.53000000	     -9.96831445	     -2.38095271	     -3.70134776	      0.10276605	      1.15759163	     -0.23544678	      0.00000000	      0.50000000	      0.00000000	      0.25000000	     64.18563114	     -3.49213415	     -5.11308745	     64.11130545	      1.11895337	     23.08306543	     -0.98332077	      0.00000000	      0.00000000	     63.89618307	    -21.46209617	     -7.25725075	     88.35636408	      1.54210947	    -25.22208066	     -4.02203289	      0.00000000	      0.00000000	    -60.82176347	      2.34970192	      2.03897141	     89.68038406	     -0.36989618	     25.13809484	     39.64049805	     19.39411718	      0.00000000	      0.00000000	     89.75970645	     -7.38257579	     28.73216400	     33.26668166	     18.25959923	      0.00000000	      0.00000000
      2.53500000	    -10.10203941	     -2.31592768	     -3.18868410	      0.10266368	      1.15639959	     -0.23462188	      0.00000000	      0.50000000	      0.00000000	      0.25000000	     63.32852933	     -3.74981268	     -5.36541854	     62.52265789	      1.09122624	     22.09553823	     -1.32843584	      0.00000000	      0.00000000	     65.12292301	    -21.48987623	     -6.73236738	     90.06002906	      1.57184403	    -23.73711009	     -2.95340783	      0.00000000	      0.00000000	    -60.65931596	      2.59634664	      1.72925227	     89.67406380	     -0.25707641	     25.08289546	     39.54971971	     19.43346184	      0.00000000	      0.00000000	     89.75297099	     -7.66407715	     28.79262009	     33.63677826	     18.36008748	      0.00000000	      0.00000000
      2.54000000	    -10.16322936	     -1.78323294	     -2.75911100	      0.10273928	      1.15577755	     -0.23348527	      0.00000000	      0.50000000	      0.00000000	      0.25000000	     62.44918304	     -4.17604697	     -5.07352298	     60.99953635	      1.06464275	     21.38685117	     -1.07323394	      0.00000000	      0.00000000	     65.96276324	    -21.35686397	     -6.89592438	     91.49246522	      1.59684476	    -23.18345350	     -2.91647861	      0.00000000	      0.00000000	    -60.51714434	      2.30886130	      1.07318271	     89.65811271	     -0.43006633	     24.99850720	     39.54201663	     19.44078338	      0.00000000	      0.00000000	     89.75565149	     -7.56258851	     28.85802685	     33.73250448	     18.38500173	      0.00000000	      0.00000000
